<?xml version="1.0" standalone="no"?>
<!DOCTYPE svg PUBLIC "-//W3C//DTD SVG 20010904//EN"
 "http://www.w3.org/TR/2001/REC-SVG-20010904/DTD/svg10.dtd">
<svg version="1.0" xmlns="http://www.w3.org/2000/svg"
 width="1200.000000pt" height="1200.000000pt" viewBox="0 0 1200.000000 1200.000000"
 preserveAspectRatio="xMidYMid meet">
<metadata>
Created by potrace 1.14, written by Peter Selinger 2001-2017
</metadata>
<g transform="translate(0.000000,1200.000000) scale(0.100000,-0.100000)"
fill="#000000" stroke="none">
<path d="M2917 9524 c-1 -2 -47 -5 -102 -8 -55 -3 -100 -6 -100 -6 0 -3 -30
-7 -82 -14 -28 -3 -57 -8 -65 -10 -7 -3 -26 -7 -43 -10 -16 -3 -41 -7 -55 -10
-14 -3 -37 -8 -52 -12 -15 -3 -31 -6 -35 -6 -5 -1 -33 -9 -63 -20 -30 -10 -57
-19 -60 -20 -11 -2 -78 -23 -105 -34 -11 -4 -22 -8 -25 -9 -95 -33 -271 -114
-375 -174 -63 -36 -239 -147 -265 -168 -314 -246 -464 -392 -665 -648 -54 -68
-207 -289 -218 -315 -7 -14 -15 -27 -18 -30 -8 -6 -38 -58 -98 -173 -23 -42
-57 -106 -75 -141 -19 -36 -32 -67 -28 -70 3 -3 0 -6 -6 -6 -7 0 -11 -3 -10
-7 1 -5 -5 -24 -14 -43 -9 -19 -33 -75 -53 -125 -20 -49 -40 -99 -45 -110 -13
-29 -88 -264 -96 -300 -4 -16 -9 -34 -13 -40 -3 -5 -6 -15 -7 -22 -1 -7 -10
-43 -19 -80 -10 -37 -19 -79 -22 -93 -2 -14 -9 -43 -14 -65 -5 -22 -12 -53
-15 -70 -3 -16 -7 -41 -10 -55 -9 -51 -11 -66 -19 -120 -5 -30 -9 -71 -11 -90
-1 -19 -3 -35 -4 -35 -14 0 -20 -675 -6 -765 4 -30 10 -71 11 -90 5 -56 26
-176 45 -260 5 -25 12 -56 14 -70 5 -24 14 -64 20 -85 2 -5 6 -23 11 -40 10
-40 65 -226 72 -245 3 -8 7 -19 9 -25 26 -92 210 -513 234 -535 3 -3 6 -10 7
-17 7 -37 293 -483 314 -491 5 -2 9 -8 9 -14 0 -10 93 -126 190 -237 61 -70
266 -274 320 -318 19 -15 46 -39 60 -52 66 -63 356 -266 445 -313 17 -8 68
-36 115 -61 131 -70 381 -171 471 -191 13 -3 49 -13 79 -21 62 -18 82 -23 125
-30 17 -3 37 -8 45 -10 8 -3 33 -7 55 -10 22 -2 58 -7 80 -10 97 -14 139 -16
280 -17 134 -1 200 3 300 17 70 9 274 64 320 85 11 5 43 18 72 29 161 62 443
229 603 358 240 192 497 446 716 708 72 85 71 84 135 165 28 36 58 74 68 85 9
11 39 52 66 90 27 39 55 76 62 83 7 7 56 77 110 155 53 78 102 145 107 149 7
5 7 8 1 8 -7 0 -7 3 0 8 6 4 26 32 46 62 72 110 127 197 168 265 23 39 60 99
82 134 21 34 39 64 39 66 0 2 18 33 40 69 22 36 40 70 40 76 0 17 27 11 33 -7
3 -10 23 -49 44 -88 22 -38 57 -101 78 -140 21 -38 49 -88 61 -110 70 -129
392 -639 413 -655 4 -3 29 -38 56 -78 27 -39 56 -80 64 -90 9 -10 27 -33 41
-52 13 -19 28 -39 32 -45 12 -16 211 -257 243 -295 76 -90 391 -395 490 -474
162 -129 355 -255 514 -335 78 -39 141 -68 141 -64 0 3 7 0 15 -7 8 -7 15 -9
15 -5 0 4 6 2 14 -4 15 -13 151 -58 200 -67 16 -3 34 -8 40 -12 6 -3 16 -7 21
-8 6 -1 26 -5 45 -9 19 -4 49 -9 65 -11 17 -2 48 -7 70 -11 22 -4 130 -7 240
-7 240 -1 307 6 545 55 30 6 62 13 70 14 8 2 15 4 15 5 0 1 7 3 50 14 73 17
276 89 375 132 204 90 490 264 646 393 192 158 329 291 455 441 29 36 56 67
59 70 3 3 21 25 40 50 19 25 38 50 43 55 48 62 92 127 153 224 41 64 77 121
81 126 5 6 17 28 28 50 11 22 23 42 26 45 12 10 149 300 189 400 23 58 46 114
51 125 22 53 84 253 111 360 29 118 33 135 43 185 3 14 7 36 10 50 2 13 7 42
11 64 3 22 7 43 9 46 2 3 6 39 10 80 4 40 9 87 12 104 9 48 9 540 0 646 -14
169 -34 319 -62 453 -2 12 -6 33 -9 47 -3 14 -8 36 -11 50 -3 14 -8 41 -11 60
-3 19 -8 38 -11 42 -2 5 -6 16 -8 25 -26 129 -132 475 -147 481 -5 2 -8 10 -8
17 0 38 -151 370 -243 535 -14 25 -34 61 -45 80 -16 30 -53 87 -149 230 -20
29 -96 133 -103 140 -3 3 -23 28 -45 55 -102 129 -312 339 -424 425 -18 14
-38 30 -44 36 -46 41 -219 159 -325 220 -47 28 -279 144 -287 144 -3 0 -24 9
-48 20 -107 49 -409 137 -537 155 -24 4 -48 9 -52 11 -4 3 -32 7 -60 10 -29 3
-66 7 -83 9 -135 19 -396 24 -515 11 -103 -12 -112 -13 -170 -24 -88 -18 -97
-20 -178 -42 -42 -12 -81 -23 -87 -24 -5 -1 -26 -9 -45 -18 -19 -8 -48 -18
-63 -22 -28 -7 -229 -97 -257 -116 -8 -5 -37 -21 -64 -35 -151 -79 -416 -273
-585 -429 -107 -99 -307 -309 -362 -381 -13 -16 -29 -34 -35 -40 -6 -5 -38
-44 -70 -85 -32 -41 -63 -79 -67 -85 -28 -34 -152 -205 -183 -253 -21 -31 -41
-59 -44 -62 -4 -3 -20 -27 -35 -55 -16 -27 -35 -54 -42 -58 -7 -4 -13 -13 -13
-18 0 -6 -13 -29 -29 -52 -59 -87 -229 -385 -323 -567 -27 -52 -54 -99 -59
-104 -5 -6 -9 -18 -9 -29 0 -10 -5 -17 -12 -15 -12 4 -211 333 -224 371 -4 9
-10 17 -15 17 -5 0 -9 5 -9 11 0 5 -22 44 -50 86 -27 42 -50 80 -50 84 0 5 -4
9 -10 9 -5 0 -10 6 -10 13 -1 10 -69 112 -222 330 -10 15 -53 73 -105 142 -5
6 -21 28 -38 50 -40 54 -199 248 -229 281 -6 7 -36 40 -66 75 -162 186 -410
416 -604 562 -50 38 -98 74 -107 81 -8 7 -31 21 -50 32 -19 10 -36 22 -39 25
-3 3 -18 14 -35 23 -16 10 -52 30 -80 47 -233 136 -543 246 -770 274 -72 9
-119 16 -123 19 -1 2 -18 0 -37 -4 -19 -4 -37 -5 -40 -1 -6 5 -183 10 -188 5z
m233 -829 c96 -12 159 -27 260 -61 79 -28 244 -107 270 -129 8 -8 18 -14 23
-14 9 0 169 -108 200 -134 12 -11 59 -49 105 -85 140 -113 394 -380 557 -585
17 -21 35 -44 40 -50 15 -17 125 -165 154 -207 13 -19 26 -37 30 -40 14 -12
263 -395 321 -495 10 -16 35 -59 57 -95 22 -36 55 -92 73 -125 19 -33 44 -78
57 -100 38 -68 57 -104 163 -310 56 -110 106 -205 111 -211 14 -17 3 -48 -52
-151 -50 -95 -191 -353 -209 -383 -5 -8 -28 -49 -52 -90 -23 -41 -46 -76 -50
-78 -5 -2 -8 -8 -8 -14 0 -25 -395 -640 -424 -660 -6 -4 -8 -8 -3 -8 4 0 -1
-8 -10 -18 -10 -11 -27 -32 -38 -48 -65 -93 -260 -346 -305 -394 -8 -9 -35
-40 -60 -69 -25 -30 -69 -79 -98 -110 -104 -109 -204 -211 -208 -211 -2 0 -14
-10 -27 -22 -98 -95 -211 -187 -306 -250 -31 -21 -61 -42 -67 -47 -51 -42
-309 -159 -386 -175 -13 -3 -34 -7 -48 -11 -77 -17 -158 -20 -280 -11 -78 6
-99 8 -165 21 -22 5 -47 9 -55 10 -8 1 -22 5 -30 8 -13 5 -66 17 -80 19 -37 5
-269 102 -358 150 -80 43 -303 191 -326 217 -11 11 -23 21 -27 21 -19 0 -255
228 -349 339 -129 150 -234 301 -343 491 -86 151 -230 487 -253 593 -1 4 -3 9
-4 12 -1 3 -3 8 -4 13 -1 4 -6 18 -10 32 -5 14 -10 32 -11 40 -1 8 -4 22 -8
30 -3 8 -13 49 -22 90 -9 41 -17 82 -19 90 -2 8 -7 40 -11 70 -4 30 -10 66
-12 80 -19 124 -26 328 -18 490 7 130 14 197 31 305 3 17 7 43 9 59 5 39 36
188 42 206 7 18 9 27 16 60 10 45 57 202 68 221 5 11 7 19 3 19 -3 0 -2 6 3
13 6 6 16 30 23 52 7 22 18 54 26 70 7 17 25 59 39 95 38 91 167 340 177 340
4 0 7 4 6 8 -3 7 82 141 153 242 31 45 87 114 144 179 51 59 208 214 259 256
27 22 54 45 60 50 13 13 143 105 167 120 77 46 194 108 244 130 33 15 74 33
90 40 17 7 44 17 60 21 17 4 35 10 40 14 8 6 42 16 90 26 6 1 28 6 50 12 22 6
58 13 80 17 22 3 54 8 70 10 17 3 57 7 89 10 33 3 61 6 62 8 4 4 166 -2 214
-8z m5930 -9 c80 -5 147 -14 230 -31 14 -2 36 -7 50 -9 55 -11 147 -34 170
-43 8 -3 20 -7 25 -9 21 -5 174 -63 192 -73 10 -5 56 -28 103 -52 47 -23 87
-46 88 -50 2 -5 8 -9 13 -9 14 0 120 -72 211 -144 100 -78 276 -257 360 -366
54 -70 128 -180 205 -305 34 -55 126 -242 162 -330 23 -55 46 -108 51 -117 6
-10 10 -26 10 -36 0 -10 5 -23 11 -29 6 -6 12 -19 14 -29 2 -11 4 -19 5 -19 1
0 3 -8 5 -18 2 -10 7 -26 11 -35 4 -9 8 -21 10 -27 1 -5 18 -68 38 -139 20
-71 34 -132 31 -134 -3 -3 -1 -10 4 -16 5 -6 11 -27 14 -46 13 -76 18 -107 27
-150 12 -55 17 -93 36 -275 8 -76 11 -470 3 -505 -4 -19 -10 -60 -13 -90 -3
-30 -7 -64 -9 -75 -3 -11 -7 -36 -11 -55 -6 -34 -12 -64 -20 -105 -22 -105
-87 -314 -135 -434 -59 -146 -186 -401 -203 -409 -5 -2 -8 -8 -8 -13 0 -17
-194 -303 -230 -339 -3 -3 -34 -39 -70 -80 -174 -199 -337 -338 -575 -487 -21
-13 -67 -38 -120 -66 -106 -55 -303 -129 -375 -142 -19 -3 -37 -8 -42 -11 -10
-6 -69 -18 -153 -30 -11 -1 -20 -3 -20 -4 0 -12 -363 -21 -371 -9 -3 5 -9 7
-13 5 -4 -3 -25 0 -47 5 -21 5 -50 12 -63 15 -93 20 -305 121 -419 200 -35 24
-67 44 -72 44 -4 0 -10 4 -12 8 -1 4 -25 24 -51 45 -139 104 -349 311 -497
488 -88 104 -153 186 -195 245 -11 15 -26 33 -32 40 -7 7 -13 16 -13 20 0 4
-8 17 -19 28 -29 33 -131 184 -131 195 0 5 -4 11 -9 13 -5 2 -38 50 -74 108
-37 58 -70 110 -74 115 -18 24 -45 71 -50 88 -3 9 -9 17 -14 17 -5 0 -9 4 -9
10 0 5 -18 39 -40 75 -22 36 -40 69 -40 74 0 5 -7 14 -15 21 -9 7 -13 15 -11
17 2 3 -9 26 -25 51 -16 25 -29 51 -29 58 0 7 -3 14 -7 16 -5 2 -19 26 -33 53
-14 28 -29 53 -35 57 -7 5 -7 8 0 8 6 0 6 3 0 8 -11 7 -197 378 -201 400 -1 7
-8 19 -14 27 -23 28 -67 130 -62 145 2 8 10 29 18 45 15 36 43 104 44 110 1 2
18 42 39 87 21 46 48 106 61 133 34 76 202 412 239 479 18 32 46 81 62 108 16
27 29 51 29 54 0 3 14 25 30 49 17 24 30 46 30 49 0 4 25 45 55 91 30 47 55
90 55 95 0 4 3 10 8 12 4 2 36 46 71 98 64 95 212 296 247 336 11 12 31 37 46
55 123 152 323 352 463 464 28 22 52 43 53 47 2 5 10 8 17 8 7 0 15 4 17 8 6
14 170 119 259 165 83 43 170 80 186 79 4 0 13 4 19 9 7 5 20 11 30 13 11 2
55 13 99 24 44 12 114 24 155 27 41 4 76 7 77 8 2 3 89 -1 173 -7z"/>
</g>
</svg>
